<?xml version="1.0" encoding="UTF-8"?>
<svg id="Laag_1" xmlns="http://www.w3.org/2000/svg" version="1.1" viewBox="0 0 437.82 132.31">
  <!-- Generator: Adobe Illustrator 30.1.0, SVG Export Plug-In . SVG Version: 2.1.1 Build 136)  -->
  <path d="M66.16,0C29.62,0,0,29.62,0,66.15s29.62,66.15,66.16,66.15,66.15-29.62,66.15-66.15S102.69,0,66.16,0ZM97.65,50.54c0,.42-.34.76-.76.76h-33.59c-.42,0-.76.34-.76.76v44.79c0,.42.34.76.76.76h5.74c.42,0,.76-.34.76-.76v-35.89c0-.42.34-.76.76-.76h7.68c.42,0,.76.34.76.76v45.09c0,.42-.34.76-.76.76h-24.41c-.42,0-.76-.34-.76-.76v-.36c0-.42,0-1.11,0-1.53v-54.79c0-.42,0-.76,0-.76s0-.34,0-.76v-5c0-.42.34-.76.76-.76h33.84c.42,0,.76-.34.76-.76v-5.89c0-.42-.34-.76-.76-.76h-43.05c-.42,0-.76.34-.76.76v15.06c0,.42-.34.76-.76.76h-7.68c-.42,0-.76-.34-.76-.76v-24.27c0-.42.34-.76.76-.76h61.45c.42,0,.76.34.76.76v24.3Z" fill="#fff"/>
  <g>
    <path d="M163.52,56.43c0,1.24,0,2.09-.57,2.79-.57.7-1.51,1.05-3.14,1.05s-2.57-.35-3.14-1.05c-.57-.7-.57-1.55-.57-2.79v-15.04h-3.51c-1.3,0-2.2,0-2.94-.5-.73-.47-1.1-1.28-1.1-2.67s.37-2.21,1.1-2.68c.73-.5,1.63-.5,2.94-.5h14.44c1.31,0,2.2,0,2.94.5.73.47,1.1,1.28,1.1,2.68s-.37,2.21-1.1,2.67c-.73.5-1.63.5-2.94.5h-3.51v15.04Z" fill="#fff"/>
    <path d="M181.91,56.43c0,1.24,0,2.09-.53,2.79-.53.7-1.43,1.05-2.98,1.05s-2.45-.35-2.98-1.05c-.53-.7-.53-1.55-.53-2.79v-17.33c0-1.4,0-3.06,2.61-3.84,1.18-.35,2.94-.58,5.67-.58,2.24,0,4.73.15,7.02,1.16,2.81,1.24,4.49,3.53,4.49,6.86,0,3.1-1.47,5.5-4.16,6.94l5.63,7.09c1.3,1.67.49,3.53-3.02,3.53-2.69,0-3.71-1.08-4.98-2.91l-2.81-4.03c-.73-1.09-1.31-2.13-1.31-2.13h-2.12v5.23ZM181.91,45.85s.57.04,1.14.04c3.02,0,4.2-1.12,4.2-2.79,0-1.94-1.59-2.56-3.71-2.56-.9,0-1.63.12-1.63.12v5.19Z" fill="#fff"/>
    <path d="M216.2,55.08h-9.09l-.73,1.94c-.86,2.25-1.88,3.25-4.45,3.25-2.33,0-3.18-.81-3.18-2.05,0-.46.12-.97.45-1.67l8.32-18.76c.86-1.98,1.84-3.02,4.45-3.02s3.51,1.09,4.32,3.02l8.04,18.8c.24.66.37,1.12.37,1.55,0,1.4-1.14,2.13-3.47,2.13-2.45,0-3.3-.81-4.24-3.22l-.78-1.98ZM209.15,49.73h5.06l-2.53-6.51-2.53,6.51Z" fill="#fff"/>
    <path d="M235.61,56.32c0,1.24,0,2.09-.57,2.79-.53.7-1.43,1.05-3.02,1.05s-2.49-.35-3.02-1.05c-.57-.7-.57-1.55-.57-2.79v-18.95c0-1.67,1.26-2.71,4-2.71s3.88,1.05,4.89,2.33l9.05,11.78v-10.27c0-1.24,0-2.09.57-2.79.53-.7,1.43-1.05,3.02-1.05s2.49.35,3.02,1.05c.57.7.57,1.55.57,2.79v18.99c0,1.86-1.26,2.79-3.47,2.79s-3.34-.89-4.41-2.21l-10.07-12.52v10.78Z" fill="#fff"/>
    <path d="M272.19,45.97c2.12,1.36,3.92,3.3,3.92,6.47,0,4.96-4.45,7.83-9.87,7.83-1.88,0-3.75-.35-5.55-1.12-1.39-.62-2.57-1.43-2.57-2.98s1.06-3.41,2.94-3.41c1.71,0,3.02,1.63,5.22,1.63,1.47,0,2.41-.7,2.41-1.67,0-1.2-1.43-1.94-3.18-2.83-3.02-1.51-7.14-3.33-7.14-7.87s4.28-7.67,9.54-7.67c3.67,0,7.75,1.47,7.75,4.03,0,1.47-1.35,3.26-3.1,3.26-1.51,0-2.98-1.36-4.81-1.36-1.22,0-1.96.62-1.96,1.36,0,1.59,3.47,2.44,6.4,4.34Z" fill="#fff"/>
    <path d="M287.77,56.43c0,1.24,0,2.09-.57,2.79-.53.7-1.47,1.05-3.06,1.05s-2.53-.35-3.06-1.05c-.57-.7-.57-1.55-.57-2.79v-18.1c0-2.4.94-3.29,3.47-3.29h9.1c1.31,0,2.2,0,2.94.5.73.47,1.1,1.28,1.1,2.68s-.37,2.21-1.1,2.67c-.73.5-1.63.5-2.94.5h-5.3v3.41h4.2c1.3,0,2.2,0,2.94.47.73.5,1.1,1.28,1.1,2.63s-.37,2.13-1.1,2.64c-.73.47-1.63.47-2.94.47h-4.2v5.43Z" fill="#fff"/>
    <path d="M308.4,44.26h3.83c1.31,0,2.2,0,2.94.47s1.1,1.2,1.1,2.52-.37,2.02-1.1,2.48c-.73.46-1.63.46-2.94.46h-3.83v4.15h6.12c1.31,0,2.2,0,2.94.46.74.47,1.1,1.2,1.1,2.52s-.37,2.02-1.1,2.48c-.73.47-1.63.47-2.94.47h-9.71c-2.53,0-3.47-.89-3.47-3.3v-18.45c0-2.4.94-3.29,3.47-3.29h8.97c1.31,0,2.2,0,2.94.46.73.47,1.1,1.2,1.1,2.52s-.37,2.02-1.1,2.48c-.73.47-1.63.47-2.94.47h-5.38v3.1Z" fill="#fff"/>
    <path d="M330.3,56.43c0,1.24,0,2.09-.53,2.79-.53.7-1.43,1.05-2.98,1.05s-2.45-.35-2.98-1.05c-.53-.7-.53-1.55-.53-2.79v-17.33c0-1.4,0-3.06,2.61-3.84,1.18-.35,2.94-.58,5.67-.58,2.24,0,4.73.15,7.02,1.16,2.81,1.24,4.49,3.53,4.49,6.86,0,3.1-1.47,5.5-4.16,6.94l5.63,7.09c1.3,1.67.49,3.53-3.02,3.53-2.69,0-3.71-1.08-4.98-2.91l-2.81-4.03c-.73-1.09-1.31-2.13-1.31-2.13h-2.12v5.23ZM330.3,45.85s.57.04,1.14.04c3.02,0,4.2-1.12,4.2-2.79,0-1.94-1.59-2.56-3.71-2.56-.9,0-1.63.12-1.63.12v5.19Z" fill="#fff"/>
    <path d="M357.98,51.86c-.73,0-1.35-.04-1.35-.04v4.61c0,1.24,0,2.09-.57,2.79-.53.7-1.47,1.05-3.06,1.05s-2.53-.35-3.06-1.05c-.57-.7-.57-1.55-.57-2.79v-17.37c0-1.4,0-2.91,2.32-3.72,1.18-.43,3.1-.66,5.55-.66,2.65,0,5.79.27,8.32,1.74,2.37,1.4,3.79,3.57,3.79,6.71,0,5.81-4.89,8.72-11.38,8.72ZM356.63,46.47s.49.08,1.14.08c2.24,0,4.16-.85,4.16-3.06,0-2.02-1.63-2.95-4-2.95-.69,0-1.31.08-1.31.08v5.85Z" fill="#fff"/>
    <path d="M380.49,44.26h3.83c1.31,0,2.2,0,2.94.47s1.1,1.2,1.1,2.52-.37,2.02-1.1,2.48c-.73.46-1.63.46-2.94.46h-3.83v4.15h6.12c1.31,0,2.2,0,2.94.46.74.47,1.1,1.2,1.1,2.52s-.37,2.02-1.1,2.48c-.73.47-1.63.47-2.94.47h-9.71c-2.53,0-3.47-.89-3.47-3.3v-18.45c0-2.4.94-3.29,3.47-3.29h8.97c1.31,0,2.2,0,2.94.46.73.47,1.1,1.2,1.1,2.52s-.37,2.02-1.1,2.48c-.73.47-1.63.47-2.94.47h-5.38v3.1Z" fill="#fff"/>
    <path d="M402.39,56.43c0,1.24,0,2.09-.53,2.79-.53.7-1.43,1.05-2.98,1.05s-2.45-.35-2.98-1.05c-.53-.7-.53-1.55-.53-2.79v-17.33c0-1.4,0-3.06,2.61-3.84,1.18-.35,2.94-.58,5.67-.58,2.24,0,4.73.15,7.02,1.16,2.81,1.24,4.49,3.53,4.49,6.86,0,3.1-1.47,5.5-4.16,6.94l5.63,7.09c1.3,1.67.49,3.53-3.02,3.53-2.69,0-3.71-1.08-4.98-2.91l-2.81-4.03c-.73-1.09-1.31-2.13-1.31-2.13h-2.12v5.23ZM402.39,45.85s.57.04,1.14.04c3.02,0,4.2-1.12,4.2-2.79,0-1.94-1.59-2.56-3.71-2.56-.9,0-1.63.12-1.63.12v5.19Z" fill="#fff"/>
    <path d="M433.91,45.97c2.12,1.36,3.92,3.3,3.92,6.47,0,4.96-4.45,7.83-9.87,7.83-1.88,0-3.75-.35-5.55-1.12-1.39-.62-2.57-1.43-2.57-2.98s1.06-3.41,2.94-3.41c1.71,0,3.02,1.63,5.22,1.63,1.47,0,2.41-.7,2.41-1.67,0-1.2-1.43-1.94-3.18-2.83-3.02-1.51-7.14-3.33-7.14-7.87s4.28-7.67,9.54-7.67c3.67,0,7.75,1.47,7.75,4.03,0,1.47-1.35,3.26-3.1,3.26-1.51,0-2.98-1.36-4.81-1.36-1.22,0-1.96.62-1.96,1.36,0,1.59,3.47,2.44,6.4,4.34Z" fill="#fff"/>
  </g>
  <g>
    <path d="M162.55,82.49c2.13,1.43,3.93,3.48,3.93,6.83,0,5.24-4.46,8.26-9.9,8.26-1.88,0-3.76-.37-5.56-1.19-1.39-.65-2.58-1.51-2.58-3.15s1.06-3.6,2.94-3.6c1.72,0,3.03,1.72,5.24,1.72,1.47,0,2.41-.74,2.41-1.76,0-1.27-1.43-2.04-3.19-2.99-3.03-1.6-7.16-3.52-7.16-8.3s4.3-8.1,9.57-8.1c3.68,0,7.77,1.55,7.77,4.25,0,1.55-1.35,3.44-3.11,3.44-1.51,0-2.99-1.43-4.83-1.43-1.23,0-1.96.66-1.96,1.43,0,1.68,3.48,2.58,6.42,4.58Z" fill="#fff"/>
    <path d="M195.27,93.54c0,1.31,0,2.21-.57,2.94-.57.74-1.51,1.1-3.15,1.1s-2.58-.37-3.15-1.1c-.57-.74-.57-1.64-.57-2.94v-6.71h-9.49v6.71c0,1.31,0,2.21-.57,2.94-.57.74-1.51,1.1-3.15,1.1s-2.58-.37-3.15-1.1c-.57-.74-.57-1.64-.57-2.94v-18.82c0-1.31,0-2.21.57-2.95.57-.74,1.51-1.1,3.15-1.1s2.58.37,3.15,1.1c.57.74.57,1.64.57,2.95v5.52h9.49v-5.52c0-1.31,0-2.21.57-2.95.57-.74,1.51-1.1,3.15-1.1s2.58.37,3.15,1.1c.57.74.57,1.64.57,2.95v18.82Z" fill="#fff"/>
    <path d="M214.08,70.01c8.67,0,14.11,5.85,14.11,13.78s-5.6,13.79-14.28,13.79-14.11-5.85-14.11-13.79,5.6-13.78,14.28-13.78ZM213.99,91.16c4.05,0,6.67-2.7,6.67-7.36s-2.62-7.36-6.67-7.36-6.67,2.7-6.67,7.36,2.62,7.36,6.67,7.36Z" fill="#fff"/>
    <path d="M241.36,88.71c-.74,0-1.35-.04-1.35-.04v4.87c0,1.31,0,2.21-.57,2.94-.53.74-1.47,1.1-3.07,1.1s-2.54-.37-3.07-1.1c-.57-.74-.57-1.64-.57-2.94v-18.33c0-1.47,0-3.07,2.33-3.93,1.19-.45,3.11-.7,5.56-.7,2.66,0,5.81.29,8.34,1.84,2.37,1.47,3.8,3.76,3.8,7.08,0,6.13-4.91,9.2-11.41,9.2ZM240,83.02s.49.08,1.15.08c2.25,0,4.17-.9,4.17-3.23,0-2.13-1.64-3.11-4.01-3.11-.7,0-1.31.08-1.31.08v6.18Z" fill="#fff"/>
    <path d="M274.51,93.41c0,1.31,0,2.21-.57,2.94-.53.74-1.43,1.1-3.03,1.1s-2.49-.37-3.03-1.1c-.57-.74-.57-1.64-.57-2.94v-20c0-1.76,1.27-2.86,4.01-2.86s3.89,1.1,4.91,2.46l9.08,12.44v-10.84c0-1.31,0-2.21.57-2.95.53-.74,1.43-1.1,3.03-1.1s2.49.37,3.03,1.1c.57.74.57,1.64.57,2.95v20.04c0,1.96-1.27,2.94-3.48,2.94s-3.35-.94-4.42-2.33l-10.1-13.21v11.37Z" fill="#fff"/>
    <path d="M311.89,90.88c1.31,0,2.21,0,2.95.53.74.49,1.1,1.35,1.1,2.82s-.37,2.33-1.1,2.82c-.74.53-1.64.53-2.95.53h-9.69c-2.54,0-3.48-.94-3.48-3.48v-19.18c0-1.31,0-2.21.57-2.95.57-.74,1.51-1.1,3.15-1.1s2.58.37,3.15,1.1c.57.74.57,1.64.57,2.95v15.95h5.73Z" fill="#fff"/>
    <rect x="253.31" y="88.94" width="8.33" height="8.33" rx=".91" ry=".91" fill="#fff"/>
  </g>
</svg>