<?xml version="1.0" encoding="UTF-8"?>
<svg id="Drukproef" xmlns="http://www.w3.org/2000/svg" version="1.1" viewBox="0 0 992.13 128.18">
  <!-- Generator: Adobe Illustrator 30.4.0, SVG Export Plug-In . SVG Version: 2.1.4 Build 226)  -->
  <rect width="992.13" height="128.18"/>
  <g>
    <path d="M713.08,22.49c-22.37,0-40.5,18.13-40.5,40.5s18.13,40.5,40.5,40.5,40.5-18.13,40.5-40.5-18.13-40.5-40.5-40.5M732.36,53.44c0,.26-.21.47-.47.47h-20.56c-.26,0-.47.21-.47.47v27.42c0,.26.21.47.47.47h3.52c.26,0,.47-.21.47-.47v-21.97c0-.26.21-.47.47-.47h4.7c.26,0,.47.21.47.47v27.61c0,.26-.21.47-.47.47h-14.94c-.26,0-.47-.21-.47-.47v-.22c0-.26,0-.68,0-.93v-33.54c0-.26,0-.47,0-.47,0,0,0-.21,0-.47v-3.06c0-.26.21-.47.47-.47h20.72c.26,0,.47-.21.47-.47v-3.6c0-.26-.21-.47-.47-.47h-26.36c-.26,0-.47.21-.47.47v9.22c0,.26-.21.47-.47.47h-4.7c-.26,0-.47-.21-.47-.47v-14.86c0-.26.21-.47.47-.47h37.63c.26,0,.47.21.47.47v14.88Z" fill="#fff"/>
    <path d="M772.69,57.05c0,.76,0,1.28-.35,1.71-.35.43-.92.64-1.92.64s-1.57-.21-1.92-.64c-.35-.43-.35-.95-.35-1.71v-9.21h-2.15c-.8,0-1.35,0-1.8-.31-.45-.29-.67-.78-.67-1.64s.22-1.35.67-1.64c.45-.31,1-.31,1.8-.31h8.84c.8,0,1.35,0,1.8.31.45.29.67.78.67,1.64s-.22,1.35-.67,1.64c-.45.31-1,.31-1.8.31h-2.15v9.21Z" fill="#fff"/>
    <path d="M783.95,57.05c0,.76,0,1.28-.33,1.71-.32.43-.87.64-1.82.64s-1.5-.21-1.82-.64c-.32-.43-.32-.95-.32-1.71v-10.61c0-.85,0-1.87,1.6-2.35.72-.21,1.8-.36,3.47-.36,1.37,0,2.9.09,4.3.71,1.72.76,2.75,2.16,2.75,4.2,0,1.9-.9,3.37-2.55,4.25l3.45,4.34c.8,1.02.3,2.16-1.85,2.16-1.65,0-2.27-.66-3.05-1.78l-1.72-2.47c-.45-.66-.8-1.31-.8-1.31h-1.3v3.2ZM783.95,50.57s.35.02.7.02c1.85,0,2.57-.69,2.57-1.71,0-1.19-.97-1.57-2.27-1.57-.55,0-1,.07-1,.07v3.18Z" fill="#fff"/>
    <path d="M804.95,56.22h-5.57l-.45,1.19c-.52,1.38-1.15,1.99-2.72,1.99-1.42,0-1.95-.5-1.95-1.26,0-.28.08-.59.27-1.02l5.09-11.49c.52-1.21,1.12-1.85,2.72-1.85s2.15.66,2.65,1.85l4.92,11.51c.15.4.23.69.23.95,0,.86-.7,1.31-2.12,1.31-1.5,0-2.02-.5-2.6-1.97l-.47-1.21ZM800.63,52.94h3.1l-1.55-3.99-1.55,3.99Z" fill="#fff"/>
    <path d="M816.83,56.98c0,.76,0,1.28-.35,1.71-.33.43-.87.64-1.85.64s-1.52-.21-1.85-.64c-.35-.43-.35-.95-.35-1.71v-11.6c0-1.02.77-1.66,2.45-1.66s2.37.64,3,1.42l5.54,7.21v-6.29c0-.76,0-1.28.35-1.71.33-.43.87-.64,1.85-.64s1.52.21,1.85.64c.35.43.35.95.35,1.71v11.63c0,1.14-.77,1.71-2.12,1.71s-2.05-.55-2.7-1.35l-6.17-7.66v6.6Z" fill="#fff"/>
    <path d="M839.22,50.64c1.3.83,2.4,2.02,2.4,3.96,0,3.04-2.72,4.79-6.04,4.79-1.15,0-2.3-.21-3.4-.69-.85-.38-1.57-.88-1.57-1.83s.65-2.09,1.8-2.09c1.05,0,1.85,1,3.2,1,.9,0,1.47-.43,1.47-1.02,0-.74-.87-1.19-1.95-1.73-1.85-.93-4.37-2.04-4.37-4.82s2.62-4.7,5.84-4.7c2.25,0,4.74.9,4.74,2.47,0,.9-.82,1.99-1.9,1.99-.92,0-1.82-.83-2.95-.83-.75,0-1.2.38-1.2.83,0,.97,2.12,1.5,3.92,2.66" fill="#fff"/>
    <path d="M848.76,57.05c0,.76,0,1.28-.35,1.71-.33.43-.9.64-1.87.64s-1.55-.21-1.87-.64c-.35-.43-.35-.95-.35-1.71v-11.08c0-1.47.57-2.02,2.12-2.02h5.57c.8,0,1.35,0,1.8.31.45.29.67.78.67,1.64s-.22,1.35-.67,1.64c-.45.31-1,.31-1.8.31h-3.25v2.09h2.57c.8,0,1.35,0,1.8.28.45.31.67.78.67,1.61s-.22,1.31-.67,1.61c-.45.29-1,.29-1.8.29h-2.57v3.32Z" fill="#fff"/>
    <path d="M861.39,49.59h2.35c.8,0,1.35,0,1.8.29.45.28.67.74.67,1.54s-.22,1.23-.67,1.52c-.45.28-1,.28-1.8.28h-2.35v2.54h3.75c.8,0,1.35,0,1.8.28.45.29.67.74.67,1.54s-.22,1.23-.67,1.52c-.45.29-1,.29-1.8.29h-5.94c-1.55,0-2.12-.54-2.12-2.02v-11.3c0-1.47.57-2.02,2.12-2.02h5.49c.8,0,1.35,0,1.8.28.45.29.68.74.68,1.54s-.23,1.23-.68,1.52c-.45.28-1,.28-1.8.28h-3.3v1.9Z" fill="#fff"/>
    <path d="M874.8,57.05c0,.76,0,1.28-.32,1.71-.32.43-.87.64-1.82.64s-1.5-.21-1.82-.64c-.32-.43-.32-.95-.32-1.71v-10.61c0-.85,0-1.87,1.6-2.35.72-.21,1.8-.36,3.47-.36,1.37,0,2.9.09,4.3.71,1.72.76,2.75,2.16,2.75,4.2,0,1.9-.9,3.37-2.55,4.25l3.45,4.34c.8,1.02.3,2.16-1.85,2.16-1.65,0-2.27-.66-3.05-1.78l-1.72-2.47c-.45-.66-.8-1.31-.8-1.31h-1.3v3.2ZM874.8,50.57s.35.02.7.02c1.85,0,2.57-.69,2.57-1.71,0-1.19-.97-1.57-2.27-1.57-.55,0-1,.07-1,.07v3.18Z" fill="#fff"/>
    <path d="M891.75,54.25c-.45,0-.83-.02-.83-.02v2.82c0,.76,0,1.28-.35,1.71-.33.43-.9.64-1.87.64s-1.55-.21-1.87-.64c-.35-.43-.35-.95-.35-1.71v-10.63c0-.85,0-1.78,1.42-2.28.72-.26,1.9-.4,3.4-.4,1.62,0,3.54.17,5.09,1.07,1.45.85,2.32,2.18,2.32,4.11,0,3.56-3,5.34-6.97,5.34M890.92,50.95s.3.05.7.05c1.37,0,2.55-.52,2.55-1.87,0-1.23-1-1.8-2.45-1.8-.42,0-.8.05-.8.05v3.58Z" fill="#fff"/>
    <path d="M905.53,49.59h2.35c.8,0,1.35,0,1.8.29.45.28.67.74.67,1.54s-.22,1.23-.67,1.52c-.45.28-1,.28-1.8.28h-2.35v2.54h3.74c.8,0,1.35,0,1.8.28.45.29.67.74.67,1.54s-.22,1.23-.67,1.52c-.45.29-1,.29-1.8.29h-5.94c-1.55,0-2.12-.54-2.12-2.02v-11.3c0-1.47.57-2.02,2.12-2.02h5.49c.8,0,1.35,0,1.8.28.45.29.68.74.68,1.54s-.23,1.23-.68,1.52c-.45.28-1,.28-1.8.28h-3.3v1.9Z" fill="#fff"/>
    <path d="M918.94,57.05c0,.76,0,1.28-.33,1.71-.32.43-.87.64-1.82.64s-1.5-.21-1.82-.64c-.32-.43-.32-.95-.32-1.71v-10.61c0-.85,0-1.87,1.6-2.35.72-.21,1.8-.36,3.47-.36,1.37,0,2.9.09,4.29.71,1.72.76,2.75,2.16,2.75,4.2,0,1.9-.9,3.37-2.55,4.25l3.45,4.34c.8,1.02.3,2.16-1.85,2.16-1.65,0-2.27-.66-3.05-1.78l-1.72-2.47c-.45-.66-.8-1.31-.8-1.31h-1.3v3.2ZM918.94,50.57s.35.02.7.02c1.85,0,2.57-.69,2.57-1.71,0-1.19-.97-1.57-2.27-1.57-.55,0-1,.07-1,.07v3.18Z" fill="#fff"/>
    <path d="M938.23,50.64c1.3.83,2.4,2.02,2.4,3.96,0,3.04-2.72,4.79-6.04,4.79-1.15,0-2.3-.21-3.4-.69-.85-.38-1.57-.88-1.57-1.83s.65-2.09,1.8-2.09c1.05,0,1.85,1,3.2,1,.9,0,1.47-.43,1.47-1.02,0-.74-.87-1.19-1.95-1.73-1.85-.93-4.37-2.04-4.37-4.82s2.62-4.7,5.84-4.7c2.25,0,4.74.9,4.74,2.47,0,.9-.82,1.99-1.9,1.99-.92,0-1.82-.83-2.95-.83-.75,0-1.2.38-1.2.83,0,.97,2.12,1.5,3.92,2.66" fill="#fff"/>
    <path d="M772.09,73c1.3.88,2.4,2.13,2.4,4.18,0,3.21-2.73,5.06-6.06,5.06-1.15,0-2.3-.23-3.41-.73-.85-.4-1.58-.93-1.58-1.93s.65-2.2,1.8-2.2c1.05,0,1.85,1.05,3.21,1.05.9,0,1.48-.45,1.48-1.08,0-.78-.88-1.25-1.95-1.83-1.85-.98-4.38-2.15-4.38-5.08s2.63-4.96,5.86-4.96c2.25,0,4.76.95,4.76,2.6,0,.95-.83,2.1-1.9,2.1-.93,0-1.83-.88-2.95-.88-.75,0-1.2.4-1.2.88,0,1.03,2.13,1.58,3.93,2.8" fill="#fff"/>
    <path d="M792.13,79.76c0,.8,0,1.35-.35,1.8-.35.45-.93.68-1.93.68s-1.58-.23-1.93-.68c-.35-.45-.35-1-.35-1.8v-4.11h-5.81v4.11c0,.8,0,1.35-.35,1.8-.35.45-.93.68-1.93.68s-1.58-.23-1.93-.68c-.35-.45-.35-1-.35-1.8v-11.52c0-.8,0-1.35.35-1.8.35-.45.93-.68,1.93-.68s1.58.23,1.93.68c.35.45.35,1,.35,1.8v3.38h5.81v-3.38c0-.8,0-1.35.35-1.8.35-.45.93-.68,1.93-.68s1.58.23,1.93.68c.35.45.35,1,.35,1.8v11.52Z" fill="#fff"/>
    <path d="M803.64,65.36c5.31,0,8.64,3.58,8.64,8.44s-3.43,8.44-8.74,8.44-8.64-3.58-8.64-8.44,3.43-8.44,8.74-8.44M803.59,78.31c2.48,0,4.08-1.65,4.08-4.51s-1.6-4.51-4.08-4.51-4.08,1.65-4.08,4.51,1.6,4.51,4.08,4.51" fill="#fff"/>
    <path d="M820.34,76.81c-.45,0-.83-.03-.83-.03v2.98c0,.8,0,1.35-.35,1.8-.33.45-.9.68-1.88.68s-1.55-.23-1.88-.68c-.35-.45-.35-1-.35-1.8v-11.22c0-.9,0-1.88,1.43-2.4.73-.28,1.9-.43,3.41-.43,1.63,0,3.56.18,5.11,1.13,1.45.9,2.33,2.3,2.33,4.33,0,3.76-3.01,5.64-6.99,5.64M819.52,73.33s.3.05.7.05c1.38,0,2.55-.55,2.55-1.98,0-1.3-1-1.9-2.45-1.9-.43,0-.8.05-.8.05v3.78Z" fill="#fff"/>
    <path d="M840.64,79.69c0,.8,0,1.35-.35,1.8-.33.45-.88.68-1.85.68s-1.53-.23-1.85-.68c-.35-.45-.35-1-.35-1.8v-12.25c0-1.08.78-1.75,2.45-1.75s2.38.68,3.01,1.5l5.56,7.61v-6.64c0-.8,0-1.35.35-1.8.33-.45.88-.68,1.85-.68s1.53.23,1.85.68c.35.45.35,1,.35,1.8v12.27c0,1.2-.78,1.8-2.13,1.8s-2.05-.58-2.7-1.43l-6.19-8.09v6.96Z" fill="#fff"/>
    <path d="M863.53,78.13c.8,0,1.35,0,1.8.33.45.3.68.83.68,1.73s-.23,1.43-.68,1.73c-.45.33-1,.33-1.8.33h-5.94c-1.55,0-2.13-.57-2.13-2.13v-11.74c0-.8,0-1.35.35-1.8.35-.45.93-.68,1.93-.68s1.58.23,1.93.68c.35.45.35,1,.35,1.8v9.77h3.51Z" fill="#fff"/>
    <path d="M828.22,76.95h3.98c.31,0,.56.25.56.56v3.98c0,.31-.25.56-.56.56h-3.98c-.31,0-.56-.25-.56-.56v-3.98c0-.31.25-.56.56-.56Z" fill="#fff"/>
  </g>
  <g>
    <g>
      <path d="M57.43,54.46l4.47-25.4c.31-1.71,1.4-2.63,3.11-2.63h11.78c8.93,0,14.36,6.88,12.88,15.33-1.49,8.5-9.37,15.33-18.31,15.33h-11.78c-1.71,0-2.45-.92-2.15-2.63ZM71.48,49.21c4.73,0,8.19-2.93,8.98-7.44.79-4.55-1.62-7.49-6.35-7.45h-3.94l-2.63,14.89h3.94Z" fill="#fff"/>
      <path d="M110.54,35.41l-.88,4.82c-.22,1.4-1.14,2.01-2.23,1.93-.35-.04-.66-.04-.96-.04-3.68,0-5.04,2.54-5.43,4.95l-1.31,7.4c-.31,1.71-1.4,2.63-3.11,2.63h-3.77c-1.71,0-2.45-.92-2.15-2.63l3.11-17.78c.31-1.71,1.4-2.63,3.11-2.63h3.42c1.71,0,2.45.92,2.15,2.63l-.39,2.23c1.58-4.69,5.52-5.34,6.74-5.34h.53c1.23,0,1.31,1.01,1.18,1.84Z" fill="#fff"/>
      <path d="M110.76,47.54l1.88-10.86c.31-1.71,1.4-2.63,3.11-2.63h3.77c1.71,0,2.45.92,2.15,2.63l-1.75,9.98c-.31,1.8-.26,3.9,2.06,3.9s3.02-2.1,3.33-3.9l1.75-9.98c.31-1.71,1.4-2.63,3.11-2.63h3.77c1.71,0,2.45.92,2.15,2.63l-3.11,17.78c-.31,1.71-1.4,2.63-3.11,2.63h-3.77c-1.71,0-2.45-.92-2.15-2.63l.04-.22c-1.66,2.06-3.9,3.33-7.01,3.33-7.14,0-6.88-6.26-6.22-10.03Z" fill="#fff"/>
      <path d="M148.76,51.57l-1.23-4.6-1.31,7.49c-.31,1.71-1.4,2.63-3.11,2.63h-3.77c-1.71,0-2.45-.92-2.15-2.63l4.64-26.41c.31-1.71,1.4-2.63,3.11-2.63h3.77c1.71,0,2.45.92,2.15,2.63l-2.67,15.2,5.82-7.44c.96-1.23,1.97-1.75,3.42-1.75h4.16c2.19,0,2.63,1.4,1.05,3.2l-6.7,7.49,1.49,3.9c.66,1.53,1.58,1.71,2.45,1.71.18,0,.48-.04.74-.09,1.14-.26,1.84-.09,2.15.88l.74,2.5c.26.96-.09,1.88-1.31,2.5-2.01,1.01-3.94,1.45-5.78,1.45-3.72,0-6.44-1.45-7.66-6Z" fill="#fff"/>
      <path d="M163.95,64.27l4.86-27.59c.31-1.71,1.4-2.63,3.11-2.63h3.77c1.71,0,2.45.92,2.15,2.63v.22c1.58-2.06,4.16-3.33,7.14-3.33,6.13,0,9.94,5.04,8.71,12s-6.83,12-12.96,12c-2.98,0-5.12-1.27-5.96-3.37l-1.8,10.07c-.31,1.71-1.36,2.63-3.07,2.63h-3.77c-1.71,0-2.5-.92-2.19-2.63ZM184.67,45.57c.48-2.89-.74-5.12-3.37-5.12s-4.64,2.23-5.12,5.12c-.53,2.89.7,5.12,3.33,5.12s4.64-2.23,5.17-5.12Z" fill="#fff"/>
      <path d="M215.1,35.41l-.88,4.82c-.22,1.4-1.14,2.01-2.23,1.93-.35-.04-.66-.04-.96-.04-3.68,0-5.04,2.54-5.43,4.95l-1.31,7.4c-.31,1.71-1.4,2.63-3.11,2.63h-3.77c-1.71,0-2.45-.92-2.15-2.63l3.11-17.78c.31-1.71,1.4-2.63,3.11-2.63h3.42c1.71,0,2.45.92,2.15,2.63l-.39,2.23c1.58-4.69,5.52-5.34,6.74-5.34h.53c1.23,0,1.31,1.01,1.18,1.84Z" fill="#fff"/>
      <path d="M214.48,45.57c1.14-6.66,7.53-12,15.42-12s12.35,5.34,11.21,12c-1.18,6.66-7.58,12-15.46,12s-12.35-5.34-11.17-12ZM232.74,45.57c.48-2.93-1.23-4.99-4.07-4.99s-5.34,2.1-5.82,4.99c-.53,2.89,1.18,4.99,4.07,4.99s5.3-2.06,5.82-4.99Z" fill="#fff"/>
      <path d="M242.94,45.66c1.14-6.31,6.7-12.09,15.02-12.09,7.27,0,11.91,4.38,10.64,11.74-.26,1.45-1.49,2.06-3.11,2.06h-14.45c-.22,1.27,1.45,3.46,5.34,3.46,1.05,0,2.5-.17,4.2-.92,1.62-.7,2.8-.61,3.5.7l.57.92c.74,1.31.44,2.76-1.18,3.72-2.89,1.66-6.13,2.32-9.11,2.32-8.5,0-12.57-5.3-11.43-11.91ZM260.81,43.21c.26-2.23-1.66-3.33-3.9-3.33s-4.6,1.1-5.12,3.33h9.02Z" fill="#fff"/>
      <path d="M271.32,54.46l2.45-13.88h-1.49c-.83,0-1.23-.48-1.09-1.31l.57-3.33c.18-.83.74-1.31,1.58-1.31h1.49l.22-1.23c1.18-6.74,6.7-8.45,10.82-8.45,3.59,0,8.06,1.31,7.18,6.39-.04.17-.09.39-.18.61-.22.83-.74,1.23-1.53,1.23h-4.12c-.66,0-.88-.44-.79-.83,0-.09.04-.13.04-.22.09-.53-.35-1.05-1.14-1.05s-1.4.48-1.53,1.23l-.39,2.32h3.15c.83,0,1.23.48,1.05,1.31l-.57,3.33c-.13.83-.7,1.31-1.53,1.31h-2.93l-2.45,13.88c-.31,1.71-1.4,2.63-3.11,2.63h-3.55c-1.71,0-2.45-.92-2.15-2.63Z" fill="#fff"/>
    </g>
    <rect x="57.3" y="71.26" width="24.15" height="24.15" fill="#bfbfbf"/>
    <g>
      <path d="M91.37,80.49v-6.96c0-.47.25-.72.72-.72h1.08c.47,0,.72.25.72.72v5.52h3.05c.47,0,.72.25.72.72v.72c0,.47-.25.72-.72.72h-4.85c-.47,0-.72-.25-.72-.72Z" fill="#fff"/>
      <path d="M98.31,73.42c0-.62.44-1.1,1.38-1.1s1.38.48,1.38,1.1-.49,1.1-1.38,1.1-1.38-.48-1.38-1.1ZM98.46,80.49v-4.87c0-.47.25-.72.72-.72h1.03c.47,0,.72.25.72.72v4.87c0,.47-.25.72-.72.72h-1.03c-.47,0-.72-.25-.72-.72Z" fill="#fff"/>
      <path d="M101.77,78.06c0-1.82,1.55-3.29,3.71-3.29.71,0,1.46.17,2.1.54.4.25.41.64.11,1.01l-.3.36c-.28.35-.58.35-1,.16-.29-.12-.55-.16-.74-.16-.82,0-1.4.58-1.4,1.38s.59,1.38,1.4,1.38c.19,0,.46-.04.74-.16.42-.19.73-.2,1.01.14l.3.37c.29.36.28.77-.14,1.01-.62.37-1.38.54-2.07.54-2.16,0-3.71-1.46-3.71-3.29Z" fill="#fff"/>
      <path d="M108.86,80.49v-7.23c0-.47.25-.72.72-.72h1.03c.47,0,.72.25.72.72v2.42c.35-.56.9-.91,1.75-.91,1.95,0,2.19,1.71,2.19,2.75v2.97c0,.47-.25.72-.72.72h-1.03c-.47,0-.72-.25-.72-.72v-2.73c0-.49-.11-1.07-.74-1.07s-.73.58-.73,1.07v2.73c0,.47-.25.72-.72.72h-1.03c-.47,0-.72-.25-.72-.72Z" fill="#fff"/>
      <path d="M116.81,79.03v-2.34h-.5c-.23,0-.36-.13-.36-.36v-1.07c0-.23.13-.36.36-.36h.77l.2-1.12c.05-.29.24-.43.53-.43h.94c.31,0,.48.17.48.48v1.07h1.14c.23,0,.36.13.36.36v1.07c0,.23-.13.36-.36.36h-1.14v2.36c0,.28.13.38.3.38.25,0,.34-.25.34-.48,0-.07,0-.13-.01-.19-.02-.25.06-.38.3-.38h.89c.19,0,.35.07.41.26.06.16.08.32.1.49,0,1.76-1.25,2.21-2.33,2.21s-2.4-.47-2.4-2.31Z" fill="#fff"/>
      <path d="M125.48,83.55c-.43-.18-.52-.56-.29-.97l.2-.37c.23-.4.55-.48.97-.29.41.17.85.3,1.32.3.94,0,1.63-.46,1.63-1.63v-.16c-.34.56-1.03.91-1.85.91-1.68,0-2.93-1.48-2.93-3.29s1.25-3.29,2.93-3.29c.82,0,1.46.35,1.8.92v-.18c0-.42.25-.61.72-.61h.96c.47,0,.72.25.72.72v4.77c0,2.69-1.63,3.63-3.68,3.63-.86,0-1.76-.16-2.51-.48ZM129.31,78.06c0-.79-.44-1.44-1.16-1.44s-1.19.65-1.19,1.44.47,1.44,1.19,1.44,1.16-.65,1.16-1.44Z" fill="#fff"/>
      <path d="M137.35,75.28v1.32c0,.38-.22.55-.52.53-.11-.01-.19-.01-.28-.01-1.01,0-1.25.7-1.25,1.36v2.03c0,.47-.25.72-.72.72h-1.03c-.47,0-.72-.25-.72-.72v-4.87c0-.47.25-.72.72-.72h.94c.47,0,.72.25.72.72v.61c.2-1.28,1.25-1.46,1.58-1.46h.14c.34,0,.41.28.41.5Z" fill="#fff"/>
      <path d="M137.93,73.42c0-.62.44-1.1,1.38-1.1s1.38.48,1.38,1.1-.49,1.1-1.38,1.1-1.38-.48-1.38-1.1ZM138.07,80.49v-4.87c0-.47.25-.72.72-.72h1.03c.47,0,.72.25.72.72v4.87c0,.47-.25.72-.72.72h-1.03c-.47,0-.72-.25-.72-.72Z" fill="#fff"/>
      <path d="M139.74,82.29s0-.11.01-.17c.02-.23.16-.33.37-.33h1.13c.18,0,.25.12.25.23v.06c0,.14.1.29.31.29s.34-.13.34-.34v-6.4c.01-.47.26-.72.73-.72h.97c.47,0,.72.25.72.72v6.1c0,1.85-1.43,2.31-2.55,2.31-.98,0-2.28-.36-2.28-1.75ZM142.02,73.42c0-.62.44-1.1,1.38-1.1s1.38.48,1.38,1.1-.49,1.1-1.38,1.1-1.38-.48-1.38-1.1Z" fill="#fff"/>
      <path d="M145.59,80.03c-.2-.44.05-.77.5-.88l.48-.11c.41-.1.56.11.89.41.19.17.44.23.74.23.36,0,.59-.11.59-.31,0-.12-.05-.2-.42-.34l-.72-.26c-.35-.13-1.97-.54-1.97-1.92,0-1.26,1.12-2.08,2.57-2.08.86,0,1.58.25,2.09.89.32.42.11.82-.38.95l-.43.12c-.38.11-.58-.01-.85-.22-.13-.1-.29-.13-.44-.13-.26,0-.4.14-.4.3s.13.23.42.32l.7.29c1.37.48,1.98,1.15,2,2.01,0,1.42-1.28,2.04-2.75,2.04-1.27,0-2.19-.42-2.61-1.32Z" fill="#fff"/>
      <path d="M155.61,80.64l-1.73-4.91c-.18-.49.06-.83.59-.83h1.2c.43,0,.7.19.79.62l.55,2.35.64-2.21c.12-.42.38-.61.8-.61h.12c.42,0,.68.19.8.61l.64,2.21.55-2.35c.1-.43.36-.62.79-.62h1.2c.53,0,.77.34.59.83l-1.73,4.91c-.13.4-.4.58-.82.58h-.64c-.42,0-.7-.18-.82-.6l-.64-2.21-.64,2.21c-.12.42-.4.6-.82.6h-.64c-.42,0-.68-.18-.82-.58Z" fill="#fff"/>
      <path d="M163.5,78.06c0-1.82,1.49-3.29,3.65-3.29s3.65,1.46,3.65,3.29-1.49,3.29-3.65,3.29-3.65-1.46-3.65-3.29ZM168.5,78.06c0-.8-.58-1.37-1.35-1.37s-1.36.58-1.36,1.37.56,1.37,1.36,1.37,1.35-.56,1.35-1.37Z" fill="#fff"/>
      <path d="M176.14,75.28v1.32c0,.38-.22.55-.52.53-.11-.01-.19-.01-.28-.01-1.01,0-1.25.7-1.25,1.36v2.03c0,.47-.25.72-.72.72h-1.03c-.47,0-.72-.25-.72-.72v-4.87c0-.47.25-.72.72-.72h.94c.47,0,.72.25.72.72v.61c.2-1.28,1.25-1.46,1.58-1.46h.14c.34,0,.41.28.41.5Z" fill="#fff"/>
      <path d="M176.51,78.06c0-1.91,1.28-3.29,2.96-3.29.82,0,1.46.35,1.8.92v-2.43c0-.47.25-.72.72-.72h1.03c.47,0,.72.25.72.72v7.23c0,.47-.25.72-.72.72h-1.03c-.47,0-.72-.25-.72-.72v-.06c-.34.56-.98.91-1.8.91-1.68,0-2.96-1.38-2.96-3.29ZM181.3,78.06c0-.79-.44-1.4-1.16-1.4s-1.16.61-1.16,1.4.44,1.4,1.16,1.4,1.16-.61,1.16-1.4Z" fill="#fff"/>
      <path d="M185.41,79.03v-2.34h-.5c-.23,0-.36-.13-.36-.36v-1.07c0-.23.13-.36.36-.36h.77l.2-1.12c.05-.29.24-.43.53-.43h.94c.31,0,.48.17.48.48v1.07h1.14c.23,0,.36.13.36.36v1.07c0,.23-.13.36-.36.36h-1.14v2.36c0,.28.13.38.3.38.25,0,.34-.25.34-.48,0-.07,0-.13-.01-.19-.02-.25.06-.38.3-.38h.89c.19,0,.35.07.41.26.06.16.08.32.1.49,0,1.76-1.25,2.21-2.33,2.21s-2.4-.47-2.4-2.31Z" fill="#fff"/>
      <path d="M193.46,80.49v-4.87c0-.47.25-.72.72-.72h1.03c.47,0,.72.25.72.72v.06c.35-.56.9-.91,1.75-.91,1.95,0,2.19,1.71,2.19,2.75v2.97c0,.47-.25.72-.72.72h-1.03c-.47,0-.72-.25-.72-.72v-2.73c0-.49-.11-1.07-.74-1.07s-.73.58-.73,1.07v2.73c0,.47-.25.72-.72.72h-1.03c-.47,0-.72-.25-.72-.72Z" fill="#fff"/>
      <path d="M200.84,73.42c0-.62.44-1.1,1.38-1.1s1.38.48,1.38,1.1-.49,1.1-1.38,1.1-1.38-.48-1.38-1.1ZM200.99,80.49v-4.87c0-.47.25-.72.72-.72h1.03c.47,0,.72.25.72.72v4.87c0,.47-.25.72-.72.72h-1.03c-.47,0-.72-.25-.72-.72Z" fill="#fff"/>
      <path d="M204.31,78.08c0-1.73,1.25-3.31,3.53-3.31,1.99,0,3.48,1.2,3.48,3.21,0,.4-.3.56-.74.56h-3.96c0,.35.55.95,1.62.95.29,0,.68-.05,1.12-.25.41-.19.73-.17,1,.19l.19.25c.28.36.25.76-.14,1.02-.71.46-1.56.64-2.38.64-2.33,0-3.71-1.45-3.71-3.26ZM209.08,77.41c-.04-.61-.62-.91-1.24-.91s-1.2.3-1.24.91h2.47Z" fill="#fff"/>
      <path d="M212.54,79.03v-2.34h-.5c-.23,0-.36-.13-.36-.36v-1.07c0-.23.13-.36.36-.36h.77l.2-1.12c.05-.29.24-.43.53-.43h.94c.31,0,.48.17.48.48v1.07h1.14c.23,0,.36.13.36.36v1.07c0,.23-.13.36-.36.36h-1.14v2.36c0,.28.13.38.3.38.25,0,.34-.25.34-.48,0-.07,0-.13-.01-.19-.02-.25.06-.38.3-.38h.89c.19,0,.35.07.41.26.06.16.08.32.1.49,0,1.76-1.25,2.21-2.33,2.21s-2.4-.47-2.4-2.31Z" fill="#fff"/>
      <path d="M221.22,83.55c-.43-.18-.52-.56-.29-.97l.2-.37c.23-.4.55-.48.97-.29.41.17.85.3,1.32.3.94,0,1.63-.46,1.63-1.63v-.16c-.34.56-1.03.91-1.85.91-1.68,0-2.93-1.48-2.93-3.29s1.25-3.29,2.93-3.29c.82,0,1.46.35,1.8.92v-.18c0-.42.25-.61.72-.61h.96c.47,0,.72.25.72.72v4.77c0,2.69-1.63,3.63-3.68,3.63-.86,0-1.76-.16-2.51-.48ZM225.04,78.06c0-.79-.44-1.44-1.16-1.44s-1.19.65-1.19,1.44.47,1.44,1.19,1.44,1.16-.65,1.16-1.44Z" fill="#fff"/>
      <path d="M228.25,78.08c0-1.73,1.25-3.31,3.53-3.31,1.99,0,3.48,1.2,3.48,3.21,0,.4-.3.56-.74.56h-3.96c0,.35.55.95,1.62.95.29,0,.68-.05,1.12-.25.41-.19.73-.17,1,.19l.19.25c.28.36.25.76-.14,1.02-.71.46-1.56.64-2.38.64-2.33,0-3.71-1.45-3.71-3.26ZM233.02,77.41c-.04-.61-.62-.91-1.24-.91s-1.2.3-1.24.91h2.47Z" fill="#fff"/>
      <path d="M235.76,78.06c0-1.91,1.28-3.29,2.96-3.29.82,0,1.46.35,1.8.92v-2.43c0-.47.25-.72.72-.72h1.03c.47,0,.72.25.72.72v7.23c0,.47-.25.72-.72.72h-1.03c-.47,0-.72-.25-.72-.72v-.06c-.34.56-.98.91-1.8.91-1.68,0-2.96-1.38-2.96-3.29ZM240.56,78.06c0-.79-.44-1.4-1.16-1.4s-1.16.61-1.16,1.4.44,1.4,1.16,1.4,1.16-.61,1.16-1.4Z" fill="#fff"/>
      <path d="M248.68,75.28v1.32c0,.38-.22.55-.52.53-.11-.01-.19-.01-.28-.01-1.01,0-1.25.7-1.25,1.36v2.03c0,.47-.25.72-.72.72h-1.03c-.47,0-.72-.25-.72-.72v-4.87c0-.47.25-.72.72-.72h.94c.47,0,.72.25.72.72v.61c.2-1.28,1.25-1.46,1.58-1.46h.14c.34,0,.41.28.41.5Z" fill="#fff"/>
      <path d="M249.33,78.6v-2.97c0-.47.25-.72.72-.72h1.03c.47,0,.72.25.72.72v2.73c0,.49.11,1.07.74,1.07s.73-.58.73-1.07v-2.73c0-.47.25-.72.72-.72h1.03c.47,0,.72.25.72.72v4.87c0,.47-.25.72-.72.72h-1.03c-.47,0-.72-.25-.72-.72v-.06c-.35.56-.9.91-1.75.91-1.96,0-2.19-1.71-2.19-2.75Z" fill="#fff"/>
      <path d="M259.94,79.7l-.55-1.26v2.05c0,.47-.25.72-.72.72h-1.03c-.47,0-.72-.25-.72-.72v-7.23c0-.47.25-.72.72-.72h1.03c.47,0,.72.25.72.72v4.16l1.24-2.04c.2-.34.46-.48.85-.48h1.14c.6,0,.79.38.44.88l-1.48,2.05.6,1.07c.25.42.52.47.76.47.05,0,.12-.01.19-.02.3-.07.5-.02.64.24l.32.68c.12.26.06.52-.24.68-.5.28-1.01.4-1.51.4-1.02,0-1.83-.4-2.4-1.64Z" fill="#fff"/>
      <path d="M265.1,79.03v-2.34h-.5c-.23,0-.36-.13-.36-.36v-1.07c0-.23.13-.36.36-.36h.77l.2-1.12c.05-.29.24-.43.53-.43h.94c.31,0,.48.17.48.48v1.07h1.14c.23,0,.36.13.36.36v1.07c0,.23-.13.36-.36.36h-1.14v2.36c0,.28.13.38.3.38.25,0,.34-.25.34-.48,0-.07,0-.13-.01-.19-.02-.25.06-.38.3-.38h.89c.19,0,.35.07.41.26.06.16.08.32.1.49,0,1.76-1.25,2.21-2.33,2.21s-2.4-.47-2.4-2.31Z" fill="#fff"/>
      <path d="M270.39,83.07l-.05-.07c-.14-.23-.1-.41.12-.58.44-.33.94-.91.96-1.4-.06,0-.12,0-.17-.01-.6-.08-.95-.64-.95-1.1,0-.68.46-1.29,1.33-1.29,1.06,0,1.35.92,1.35,1.42,0,1.31-1,2.65-2.04,3.21-.23.12-.42.05-.56-.17Z" fill="#fff"/>
      <path d="M90.91,92.46c0-1.91,1.28-3.29,2.96-3.29.82,0,1.46.35,1.8.92v-2.43c0-.47.25-.72.72-.72h1.03c.47,0,.72.25.72.72v7.23c0,.47-.25.72-.72.72h-1.03c-.47,0-.72-.25-.72-.72v-.06c-.34.56-.98.91-1.8.91-1.68,0-2.96-1.38-2.96-3.29ZM95.71,92.46c0-.79-.44-1.4-1.16-1.4s-1.16.61-1.16,1.4.44,1.4,1.16,1.4,1.16-.61,1.16-1.4Z" fill="#fff"/>
      <path d="M99.18,87.82c0-.62.44-1.1,1.38-1.1s1.38.48,1.38,1.1-.49,1.1-1.38,1.1-1.38-.48-1.38-1.1ZM99.32,94.89v-4.87c0-.47.25-.72.72-.72h1.03c.47,0,.72.25.72.72v4.87c0,.47-.25.72-.72.72h-1.03c-.47,0-.72-.25-.72-.72Z" fill="#fff"/>
      <path d="M102.65,92.48c0-1.73,1.25-3.31,3.53-3.31,1.99,0,3.48,1.2,3.48,3.21,0,.4-.3.56-.74.56h-3.96c0,.35.55.95,1.62.95.29,0,.68-.05,1.12-.25.41-.19.73-.17,1,.19l.19.25c.28.36.25.76-.14,1.02-.71.46-1.56.64-2.38.64-2.33,0-3.71-1.45-3.71-3.26ZM107.42,91.81c-.04-.61-.62-.91-1.24-.91s-1.2.3-1.24.91h2.47Z" fill="#fff"/>
      <path d="M110.47,94.89v-4.87c0-.47.25-.72.72-.72h1.03c.47,0,.72.25.72.72v.06c.35-.56.9-.91,1.75-.91,1.95,0,2.19,1.71,2.19,2.75v2.97c0,.47-.25.72-.72.72h-1.03c-.47,0-.72-.25-.72-.72v-2.73c0-.49-.11-1.07-.74-1.07s-.73.58-.73,1.07v2.73c0,.47-.25.72-.72.72h-1.03c-.47,0-.72-.25-.72-.72Z" fill="#fff"/>
      <path d="M118.41,93.43v-2.34h-.5c-.23,0-.36-.13-.36-.36v-1.07c0-.23.13-.36.36-.36h.77l.2-1.12c.05-.29.24-.43.53-.43h.94c.31,0,.48.17.48.48v1.07h1.14c.23,0,.36.13.36.36v1.07c0,.23-.13.36-.36.36h-1.14v2.36c0,.28.13.38.3.38.25,0,.34-.25.34-.48,0-.07,0-.13-.01-.19-.02-.25.06-.38.3-.38h.89c.19,0,.35.07.41.26.06.16.08.32.1.49,0,1.76-1.25,2.21-2.33,2.21s-2.4-.47-2.4-2.31Z" fill="#fff"/>
      <path d="M126.15,92.46c0-1.91,1.28-3.29,2.96-3.29.82,0,1.46.35,1.8.92v-.07c0-.47.25-.72.72-.72h1.03c.47,0,.72.25.72.72v4.87c0,.47-.25.72-.72.72h-1.03c-.47,0-.72-.25-.72-.72v-.06c-.34.56-.98.91-1.8.91-1.68,0-2.96-1.38-2.96-3.29ZM130.95,92.46c0-.79-.44-1.4-1.16-1.4s-1.16.61-1.16,1.4.44,1.4,1.16,1.4,1.16-.61,1.16-1.4Z" fill="#fff"/>
      <path d="M134.57,94.89v-7.23c0-.47.25-.72.72-.72h1.03c.47,0,.72.25.72.72v7.23c0,.47-.25.72-.72.72h-1.03c-.47,0-.72-.25-.72-.72Z" fill="#fff"/>
      <path d="M138.02,94.43c-.2-.44.05-.77.5-.88l.48-.11c.41-.1.56.11.89.41.19.17.44.23.74.23.36,0,.59-.11.59-.31,0-.12-.05-.2-.42-.34l-.72-.26c-.35-.13-1.97-.54-1.97-1.92,0-1.26,1.12-2.08,2.57-2.08.86,0,1.58.25,2.09.89.32.42.11.82-.38.95l-.43.12c-.38.11-.58-.01-.85-.22-.13-.1-.29-.13-.44-.13-.26,0-.4.14-.4.3s.13.23.42.32l.7.29c1.37.48,1.98,1.15,2,2.01,0,1.42-1.28,2.04-2.75,2.04-1.27,0-2.19-.42-2.61-1.32Z" fill="#fff"/>
      <path d="M146.58,92.46c0-1.91,1.28-3.29,2.96-3.29.82,0,1.46.35,1.8.92v-.07c0-.47.25-.72.72-.72h1.03c.47,0,.72.25.72.72v4.87c0,.47-.25.72-.72.72h-1.03c-.47,0-.72-.25-.72-.72v-.06c-.34.56-.98.91-1.8.91-1.68,0-2.96-1.38-2.96-3.29ZM151.38,92.46c0-.79-.44-1.4-1.16-1.4s-1.16.61-1.16,1.4.44,1.4,1.16,1.4,1.16-.61,1.16-1.4Z" fill="#fff"/>
      <path d="M154.65,92.46c0-1.82,1.55-3.29,3.71-3.29.71,0,1.46.17,2.1.54.4.25.41.64.11,1.01l-.3.36c-.28.35-.58.35-1,.16-.29-.12-.55-.16-.74-.16-.82,0-1.4.58-1.4,1.38s.59,1.38,1.4,1.38c.19,0,.46-.04.74-.16.42-.19.73-.2,1.01.14l.3.37c.29.36.28.77-.14,1.01-.62.37-1.38.54-2.07.54-2.16,0-3.71-1.46-3.71-3.29Z" fill="#fff"/>
      <path d="M161.75,94.89v-7.23c0-.47.25-.72.72-.72h1.03c.47,0,.72.25.72.72v2.42c.35-.56.9-.91,1.75-.91,1.95,0,2.19,1.71,2.19,2.75v2.97c0,.47-.25.72-.72.72h-1.03c-.47,0-.72-.25-.72-.72v-2.73c0-.49-.11-1.07-.74-1.07s-.73.58-.73,1.07v2.73c0,.47-.25.72-.72.72h-1.03c-.47,0-.72-.25-.72-.72Z" fill="#fff"/>
      <path d="M169.69,93.43v-2.34h-.5c-.23,0-.36-.13-.36-.36v-1.07c0-.23.13-.36.36-.36h.77l.2-1.12c.05-.29.24-.43.53-.43h.94c.31,0,.48.17.48.48v1.07h1.14c.23,0,.36.13.36.36v1.07c0,.23-.13.36-.36.36h-1.14v2.36c0,.28.13.38.3.38.25,0,.34-.25.34-.48,0-.07,0-.13-.01-.19-.02-.25.06-.38.3-.38h.89c.19,0,.35.07.41.26.06.16.08.32.1.49,0,1.76-1.25,2.21-2.33,2.21s-2.4-.47-2.4-2.31Z" fill="#fff"/>
      <path d="M174.75,92.48c0-1.73,1.25-3.31,3.53-3.31,1.99,0,3.48,1.2,3.48,3.21,0,.4-.3.56-.74.56h-3.96c0,.35.55.95,1.62.95.29,0,.68-.05,1.12-.25.41-.19.73-.17,1,.19l.19.25c.28.36.25.76-.14,1.02-.71.46-1.56.64-2.38.64-2.33,0-3.71-1.45-3.71-3.26ZM179.53,91.81c-.04-.61-.62-.91-1.24-.91s-1.2.3-1.24.91h2.47Z" fill="#fff"/>
      <path d="M187.09,89.68v1.32c0,.38-.22.55-.52.53-.11-.01-.19-.01-.28-.01-1.01,0-1.25.7-1.25,1.36v2.03c0,.47-.25.72-.72.72h-1.03c-.47,0-.72-.25-.72-.72v-4.87c0-.47.25-.72.72-.72h.94c.47,0,.72.25.72.72v.61c.2-1.28,1.25-1.46,1.58-1.46h.14c.34,0,.41.28.41.5Z" fill="#fff"/>
      <path d="M188.39,97.95c-.43-.18-.52-.56-.29-.97l.2-.37c.23-.4.55-.48.97-.29.41.17.85.3,1.32.3.94,0,1.63-.46,1.63-1.63v-.16c-.34.56-1.03.91-1.85.91-1.68,0-2.93-1.48-2.93-3.29s1.25-3.29,2.93-3.29c.82,0,1.46.35,1.8.92v-.18c0-.42.25-.61.72-.61h.96c.47,0,.72.25.72.72v4.77c0,2.69-1.63,3.63-3.68,3.63-.86,0-1.76-.16-2.51-.48ZM192.21,92.46c0-.79-.44-1.44-1.16-1.44s-1.19.65-1.19,1.44.47,1.44,1.19,1.44,1.16-.65,1.16-1.44Z" fill="#fff"/>
      <path d="M200.25,89.68v1.32c0,.38-.22.55-.52.53-.11-.01-.19-.01-.28-.01-1.01,0-1.25.7-1.25,1.36v2.03c0,.47-.25.72-.72.72h-1.03c-.47,0-.72-.25-.72-.72v-4.87c0-.47.25-.72.72-.72h.94c.47,0,.72.25.72.72v.61c.2-1.28,1.25-1.46,1.58-1.46h.14c.34,0,.41.28.41.5Z" fill="#fff"/>
      <path d="M200.58,92.46c0-1.82,1.49-3.29,3.65-3.29s3.65,1.46,3.65,3.29-1.49,3.29-3.65,3.29-3.65-1.46-3.65-3.29ZM205.58,92.46c0-.8-.58-1.37-1.35-1.37s-1.36.58-1.36,1.37.56,1.37,1.36,1.37,1.35-.56,1.35-1.37Z" fill="#fff"/>
      <path d="M208.71,94.89v-4.87c0-.47.25-.72.72-.72h1.03c.47,0,.72.25.72.72v.06c.35-.56.9-.91,1.75-.91,1.95,0,2.19,1.71,2.19,2.75v2.97c0,.47-.25.72-.72.72h-1.03c-.47,0-.72-.25-.72-.72v-2.73c0-.49-.11-1.07-.74-1.07s-.73.58-.73,1.07v2.73c0,.47-.25.72-.72.72h-1.03c-.47,0-.72-.25-.72-.72Z" fill="#fff"/>
      <path d="M215.93,92.46c0-1.91,1.28-3.29,2.96-3.29.82,0,1.46.35,1.8.92v-2.43c0-.47.25-.72.72-.72h1.03c.47,0,.72.25.72.72v7.23c0,.47-.25.72-.72.72h-1.03c-.47,0-.72-.25-.72-.72v-.06c-.34.56-.98.91-1.8.91-1.68,0-2.96-1.38-2.96-3.29ZM220.72,92.46c0-.79-.44-1.4-1.16-1.4s-1.16.61-1.16,1.4.44,1.4,1.16,1.4,1.16-.61,1.16-1.4Z" fill="#fff"/>
      <path d="M228.6,95.07l-2.22-4.93c-.23-.49,0-.84.54-.84h1.14c.42,0,.7.18.83.59l1.04,3.06,1.07-3.06c.13-.4.4-.59.82-.59h1.15c.54,0,.78.35.55.84l-2.21,4.93c-.17.37-.43.54-.84.54h-1.03c-.41,0-.67-.17-.84-.54Z" fill="#fff"/>
      <path d="M233.83,92.46c0-1.91,1.28-3.29,2.96-3.29.82,0,1.46.35,1.8.92v-.07c0-.47.25-.72.72-.72h1.03c.47,0,.72.25.72.72v4.87c0,.47-.25.72-.72.72h-1.03c-.47,0-.72-.25-.72-.72v-.06c-.34.56-.98.91-1.8.91-1.68,0-2.96-1.38-2.96-3.29ZM238.63,92.46c0-.79-.44-1.4-1.16-1.4s-1.16.61-1.16,1.4.44,1.4,1.16,1.4,1.16-.61,1.16-1.4Z" fill="#fff"/>
      <path d="M242.24,94.89v-4.87c0-.47.25-.72.72-.72h1.03c.47,0,.72.25.72.72v.06c.35-.56.9-.91,1.75-.91,1.95,0,2.19,1.71,2.19,2.75v2.97c0,.47-.25.72-.72.72h-1.03c-.47,0-.72-.25-.72-.72v-2.73c0-.49-.11-1.07-.74-1.07s-.73.58-.73,1.07v2.73c0,.47-.25.72-.72.72h-1.03c-.47,0-.72-.25-.72-.72Z" fill="#fff"/>
      <path d="M252.12,92.46c0-1.91,1.28-3.29,2.96-3.29.82,0,1.46.35,1.8.92v-2.43c0-.47.25-.72.72-.72h1.03c.47,0,.72.25.72.72v7.23c0,.47-.25.72-.72.72h-1.03c-.47,0-.72-.25-.72-.72v-.06c-.34.56-.98.91-1.8.91-1.68,0-2.96-1.38-2.96-3.29ZM256.91,92.46c0-.79-.44-1.4-1.16-1.4s-1.16.61-1.16,1.4.44,1.4,1.16,1.4,1.16-.61,1.16-1.4Z" fill="#fff"/>
      <path d="M260.2,92.48c0-1.73,1.25-3.31,3.53-3.31,1.99,0,3.48,1.2,3.48,3.21,0,.4-.3.56-.74.56h-3.96c0,.35.55.95,1.62.95.29,0,.68-.05,1.12-.25.41-.19.73-.17,1,.19l.19.25c.28.36.25.76-.14,1.02-.71.46-1.56.64-2.38.64-2.33,0-3.71-1.45-3.71-3.26ZM264.98,91.81c-.04-.61-.62-.91-1.24-.91s-1.2.3-1.24.91h2.47Z" fill="#fff"/>
      <path d="M270.69,97.58v-7.56c0-.47.25-.72.72-.72h1.03c.47,0,.72.25.72.72v.06c.34-.56.98-.91,1.8-.91,1.68,0,2.96,1.38,2.96,3.29s-1.28,3.29-2.96,3.29c-.82,0-1.46-.35-1.8-.92v2.76c0,.47-.25.72-.72.72h-1.03c-.47,0-.72-.25-.72-.72ZM275.45,92.46c0-.79-.44-1.4-1.16-1.4s-1.16.61-1.16,1.4.44,1.4,1.16,1.4,1.16-.61,1.16-1.4Z" fill="#fff"/>
      <path d="M283.3,89.68v1.32c0,.38-.22.55-.52.53-.11-.01-.19-.01-.28-.01-1.01,0-1.25.7-1.25,1.36v2.03c0,.47-.25.72-.72.72h-1.03c-.47,0-.72-.25-.72-.72v-4.87c0-.47.25-.72.72-.72h.94c.47,0,.72.25.72.72v.61c.2-1.28,1.25-1.46,1.58-1.46h.14c.34,0,.41.28.41.5Z" fill="#fff"/>
      <path d="M283.63,92.46c0-1.82,1.49-3.29,3.65-3.29s3.65,1.46,3.65,3.29-1.49,3.29-3.65,3.29-3.65-1.46-3.65-3.29ZM288.63,92.46c0-.8-.58-1.37-1.35-1.37s-1.36.58-1.36,1.37.56,1.37,1.36,1.37,1.35-.56,1.35-1.37Z" fill="#fff"/>
      <path d="M291.44,92.48c0-1.73,1.25-3.31,3.53-3.31,1.99,0,3.48,1.2,3.48,3.21,0,.4-.3.56-.74.56h-3.96c0,.35.55.95,1.62.95.29,0,.68-.05,1.12-.25.41-.19.73-.17,1,.19l.19.25c.28.36.25.76-.14,1.02-.71.46-1.56.64-2.38.64-2.33,0-3.71-1.45-3.71-3.26ZM296.21,91.81c-.04-.61-.62-.91-1.24-.91s-1.2.3-1.24.91h2.47Z" fill="#fff"/>
      <path d="M299.64,94.89v-3.8h-.41c-.23,0-.36-.13-.36-.36v-.91c0-.23.13-.36.36-.36h.41v-.34c0-1.85,1.43-2.31,2.55-2.31.98,0,2.28.36,2.28,1.75,0,.05,0,.11-.01.17-.02.23-.16.33-.37.33h-1.13c-.18,0-.25-.12-.25-.23v-.06c0-.14-.14-.29-.36-.29s-.36.13-.36.34v.64h.86c.23,0,.36.13.36.36v.91c0,.23-.13.36-.36.36h-.8v3.8c0,.47-.25.72-.72.72h-.97c-.47,0-.72-.25-.72-.72Z" fill="#fff"/>
      <path d="M303.54,94.56c0-.71.58-1.22,1.38-1.22s1.39.52,1.39,1.22-.61,1.19-1.39,1.19-1.38-.5-1.38-1.19Z" fill="#fff"/>
    </g>
  </g>
</svg>